<svg xmlns="http://www.w3.org/2000/svg" width="279.888" height="60.557" viewBox="0 0 279.888 60.557">
  <path id="Path_56" data-name="Path 56" d="M12.656,5.644A17.533,17.533,0,0,1,13.788-.412a22.48,22.48,0,0,1,3.219-5.847,24.337,24.337,0,0,1,5.032-4.924,21.933,21.933,0,0,1,6.57-3.286,40.471,40.471,0,0,1-3.494-3.187,26.645,26.645,0,0,1-2.834-3.418,17.238,17.238,0,0,1-1.9-3.517,9.627,9.627,0,0,1-.692-3.528,18.347,18.347,0,0,1,.494-4.318,17.992,17.992,0,0,1,1.362-3.8A15.875,15.875,0,0,1,23.6-39.395a14.376,14.376,0,0,1,2.549-2.4,11.4,11.4,0,0,1,2.845-1.525,8.733,8.733,0,0,1,2.977-.534,7.732,7.732,0,0,1,3.812,1.022,9.414,9.414,0,0,1,3.263,3.244,18.891,18.891,0,0,1,2.285,5.754,36.679,36.679,0,0,1,.857,8.531q0,1.505-.426,5.42t-.8,7.512q1.34.84,2.714,1.636t2.78,1.591q.286.177.714.42t.835.519a5.187,5.187,0,0,1,.692.553.756.756,0,0,1,.286.5.647.647,0,0,1-.187.431,2.908,2.908,0,0,1-.439.4,3.828,3.828,0,0,1-.505.32q-.253.133-.385.2a2.053,2.053,0,0,1-.967.2,11.787,11.787,0,0,1-2.889-.484,20.11,20.11,0,0,1-3.381-1.3A52.914,52.914,0,0,1,37.914.042a42.721,42.721,0,0,1-2.955,6.05,29.871,29.871,0,0,1-3.395,4.667,22.956,22.956,0,0,1-3.625,3.3,15.179,15.179,0,0,1-3.647,1.976,10.182,10.182,0,0,1-3.483.659,7.429,7.429,0,0,1-3.219-.7A7.191,7.191,0,0,1,15.007,13.9a10.4,10.4,0,0,1-1.725-3.455A16.58,16.58,0,0,1,12.656,5.644Zm5.625,1.407a5.6,5.6,0,0,0,.868,3.4,2.734,2.734,0,0,0,2.3,1.154,5.97,5.97,0,0,0,3.285-1.275,15.4,15.4,0,0,0,3.68-3.946A35.925,35.925,0,0,0,31.937-.4a55.565,55.565,0,0,0,2.845-9.782l-.813-.506A15.217,15.217,0,0,0,29.7-9.161a21.14,21.14,0,0,0-3.779,2.583,23.04,23.04,0,0,0-3.153,3.286A26.482,26.482,0,0,0,20.358.325,19.25,19.25,0,0,0,18.82,3.9,10.829,10.829,0,0,0,18.281,7.051Zm7.031-36.583a8.564,8.564,0,0,0,.768,3.493A15.324,15.324,0,0,0,28.232-22.6a27.771,27.771,0,0,0,3.292,3.373,51.492,51.492,0,0,0,4.214,3.3l.541-6.434q.283-3.365.283-7.166a24.708,24.708,0,0,0-.33-4.384,11.08,11.08,0,0,0-.89-2.911,4,4,0,0,0-1.318-1.615,2.871,2.871,0,0,0-1.593-.494,3.828,3.828,0,0,0-1.648.4,7.087,7.087,0,0,0-1.626,1.088,10.967,10.967,0,0,0-1.494,1.615,12.059,12.059,0,0,0-1.219,1.966,12.191,12.191,0,0,0-.824,2.153A8.157,8.157,0,0,0,25.313-29.532ZM58.931-16.941a11.764,11.764,0,0,1,.956,2.692,14.628,14.628,0,0,1,.319,3.2,12.32,12.32,0,0,1-.286,2.615A13.447,13.447,0,0,1,59.1-5.889a12.373,12.373,0,0,1-1.318,2.307A9.388,9.388,0,0,1,56-1.714,8.426,8.426,0,0,1,53.811-.461,6.91,6.91,0,0,1,51.284,0a6.184,6.184,0,0,1-3.307-.846,7.048,7.048,0,0,1-2.252-2.208A9.793,9.793,0,0,1,44.44-6.13,14.993,14.993,0,0,1,44.033-9.6a15.353,15.353,0,0,1,.725-5,10.892,10.892,0,0,1,2.076-3.647,9.6,9.6,0,0,1,3.307-2.439,10.493,10.493,0,0,1,4.395-.89,11.594,11.594,0,0,1,3.911.648,14.859,14.859,0,0,1,3.417,1.736,14.575,14.575,0,0,1,2.966,2.736q1.373,1.648,2.56,3.142l-.417,3.1a12.773,12.773,0,0,0-1.6-1.714q-1.011-.923-2.142-2.043a18.049,18.049,0,0,0-2.23-1.9q-1.1-.78-1.89-1.307ZM52.141-4.219a2,2,0,0,0,1.45-.758,7.167,7.167,0,0,0,1.23-1.912,12.487,12.487,0,0,0,.846-2.791,15.432,15.432,0,0,0,.319-2.911,10.778,10.778,0,0,0-.154-1.879,5.781,5.781,0,0,0-.461-1.505,2.771,2.771,0,0,0-.791-1.011,1.848,1.848,0,0,0-1.165-.374,2.476,2.476,0,0,0-1.714.769,7.208,7.208,0,0,0-1.428,1.967,11.915,11.915,0,0,0-.967,2.648A13.934,13.934,0,0,0,48.955-8.7a8.2,8.2,0,0,0,.176,1.736,4.471,4.471,0,0,0,.549,1.417,2.84,2.84,0,0,0,.989.967A2.849,2.849,0,0,0,52.141-4.219ZM71.752,0a8.011,8.011,0,0,1-3.59-.76A7.457,7.457,0,0,1,65.6-2.807a8.831,8.831,0,0,1-1.539-2.975,12.131,12.131,0,0,1-.513-3.545,11.251,11.251,0,0,1,.459-2.9q.459-1.681.951-2.982a13.851,13.851,0,0,1,1.235-2.483,9.888,9.888,0,0,1,1.738-2.082A8.028,8.028,0,0,1,70.156-21.2a6.869,6.869,0,0,1,2.743-.531,6.478,6.478,0,0,1,2.288.395,5.6,5.6,0,0,1,1.837,1.108A5.015,5.015,0,0,1,78.244-18.5a5.6,5.6,0,0,1,.44,2.26,6.416,6.416,0,0,1-.892,2.986,11.968,11.968,0,0,1-2.081,2.836,13.108,13.108,0,0,1-2.829,2.106,15.335,15.335,0,0,1-3.556,1.44,6.865,6.865,0,0,0,.651.967,2.936,2.936,0,0,0,.651.6,2.2,2.2,0,0,0,.695.3,3.4,3.4,0,0,0,.783.086,8.354,8.354,0,0,0,2.78-.516A18.335,18.335,0,0,0,77.73-6.727a24.148,24.148,0,0,0,2.615-1.687,22.345,22.345,0,0,0,2.087-1.729l2.834,2.879a29.271,29.271,0,0,1-4.109,3.643q-.945.679-2.032,1.335A18.186,18.186,0,0,1,76.84-1.12a15.5,15.5,0,0,1-2.483.815A11.226,11.226,0,0,1,71.752,0ZM68.818-10.465a4.467,4.467,0,0,0,1.731-.4,7.826,7.826,0,0,0,1.742-1.021,8.319,8.319,0,0,0,1.577-1.676,3.23,3.23,0,0,0,.772-1.74,3.119,3.119,0,0,0-.364-1.59,1.046,1.046,0,0,0-.893-.623,3.526,3.526,0,0,0-1.621.344,3.507,3.507,0,0,0-1.125.892,4.588,4.588,0,0,0-.728,1.246q-.276.7-.64,1.729a6.68,6.68,0,0,0-.408,1.7Q68.818-10.938,68.818-10.465ZM85.826,0a3.062,3.062,0,0,1-2.2-1.027,8.973,8.973,0,0,1-1.773-2.758A18.589,18.589,0,0,1,80.671-7.8a26.012,26.012,0,0,1-.427-4.79,34.995,34.995,0,0,1,.634-5.757l.634-3.6.96-3.6A40.089,40.089,0,0,1,84.4-31.307a37.495,37.495,0,0,1,2.1-4.059,22.019,22.019,0,0,1,2.375-3.289,10.987,10.987,0,0,1,2.6-2.2,5.347,5.347,0,0,1,2.752-.8,3.284,3.284,0,0,1,1.68.388,2.883,2.883,0,0,1,1.041,1.026,4.423,4.423,0,0,1,.532,1.444,8.749,8.749,0,0,1,.154,1.643,19,19,0,0,1-.491,4.231A31.948,31.948,0,0,1,95.808-28.6q-.834,2.176-1.931,4.364t-2.284,4.342q-1.188,2.154-2.387,4.242t-2.214,4.082a4.838,4.838,0,0,0-.231.576q-.121.355-.231.765t-.22.875q-.11.465-.176.908v.31a5.119,5.119,0,0,0,.121,1.119,6.1,6.1,0,0,0,.3.975,2.928,2.928,0,0,0,.375.687q.2.255.375.255a3.245,3.245,0,0,0,.979-.177,9.134,9.134,0,0,0,1.17-.476q.619-.3,1.271-.687t1.26-.787q1.417-.93,2.97-2.149l1.94,4.631q-2.014,1.337-3.982,2.382-.86.439-1.776.867t-1.844.763a15.149,15.149,0,0,1-1.81.533A7.549,7.549,0,0,1,85.826,0Zm.021-17.418q.992-1.773,2.105-3.988t2.105-4.565q.992-2.349,1.719-4.687a22,22,0,0,0,.926-4.354q0-.643-.031-1.1t-.2-.454a1.865,1.865,0,0,0-1.3.835,11.31,11.31,0,0,0-1.395,2.259,33.689,33.689,0,0,0-1.666,4.634l-.969,3.21-.591,2.978A36.809,36.809,0,0,0,85.847-17.418Zm14.5,4q.9-1.219,2.021-2.618a36.54,36.54,0,0,1,3-3.228,23.753,23.753,0,0,1,3.076-2.63,4.1,4.1,0,0,1,2.252-.8,2.052,2.052,0,0,1,.593.1,1.656,1.656,0,0,1,.626.369,2.037,2.037,0,0,1,.494.75,3.308,3.308,0,0,1,.2,1.243,10.632,10.632,0,0,1-.417,2.967,17.123,17.123,0,0,1-1.582,3.5,16.078,16.078,0,0,0-1.571,3.56,11.935,11.935,0,0,0-.406,3.135,3.28,3.28,0,0,0,.264,1.433q.264.537.681.537A3.2,3.2,0,0,0,110.7-5.32a7.278,7.278,0,0,0,1.187-.577,10.666,10.666,0,0,0,1.165-.81q.571-.455,1.077-.943a25.247,25.247,0,0,0,2.373-2.575l.374,5.85q-.4.289-1,.722t-1.34.918q-.736.485-1.593.98a17.652,17.652,0,0,1-1.725.877,13.539,13.539,0,0,1-1.736.629A6.043,6.043,0,0,1,107.82,0a3.733,3.733,0,0,1-2.147-.618,5.091,5.091,0,0,1-1.5-1.57,7.589,7.589,0,0,1-.877-2.083,8.545,8.545,0,0,1-.292-2.136,7.4,7.4,0,0,1,.194-1.587q.194-.877.48-1.765t.64-1.731q.354-.843.663-1.509t.537-1.088a3.022,3.022,0,0,1,.3-.488l-.461-.067a8.3,8.3,0,0,0-1.263,1.217q-.89.978-2.01,2.467T99.767-7.611A37.383,37.383,0,0,0,97.6-3.776q-.483.978-.791,1.706a7.157,7.157,0,0,1-.6,1.172,2.3,2.3,0,0,1-.648.671,1.633,1.633,0,0,1-.9.227,1.6,1.6,0,0,1-1.143-.392,2.492,2.492,0,0,1-.637-1.042,6.136,6.136,0,0,1-.286-1.476q-.066-.826-.066-1.692,0-1.509.033-3.951t.209-5.415q.176-2.972.642-6.159l.927-6.34a37.374,37.374,0,0,1,1.374-6,23.626,23.626,0,0,1,2.222-5.018A11.545,11.545,0,0,1,101-40.933a6.717,6.717,0,0,1,4.048-1.276,4.617,4.617,0,0,1,1.945.354,2.986,2.986,0,0,1,1.208.995,3.966,3.966,0,0,1,.626,1.536,10.418,10.418,0,0,1,.176,2,16.3,16.3,0,0,1-.461,3.64,38.85,38.85,0,0,1-1.219,4.15q-.758,2.153-1.725,4.361t-1.978,4.284q-1.011,2.075-1.989,3.917t-1.725,3.24ZM102.3-27.247a50.973,50.973,0,0,0,1.882-5.668,15.577,15.577,0,0,0,.583-3.405q0-1.67-.469-1.67-.571,0-1.692,1.867A46.54,46.54,0,0,0,99.967-30.7q-.374,1.208-.692,2.5t-.505,2.588L98.4-23.065q-.181,1.249-.34,2.357Q97.58-18.1,97.324-15.6q.594-1.384,1.3-3.01t1.387-3.219q.682-1.593,1.288-3.01T102.3-27.247Zm27.624,10.306a11.764,11.764,0,0,1,.956,2.692,14.628,14.628,0,0,1,.319,3.2,12.32,12.32,0,0,1-.286,2.615,13.447,13.447,0,0,1-.824,2.549,12.373,12.373,0,0,1-1.318,2.307,9.388,9.388,0,0,1-1.78,1.868A8.426,8.426,0,0,1,124.8-.461,6.91,6.91,0,0,1,122.278,0a6.184,6.184,0,0,1-3.307-.846,7.048,7.048,0,0,1-2.252-2.208,9.793,9.793,0,0,1-1.285-3.076,14.993,14.993,0,0,1-.406-3.472,15.353,15.353,0,0,1,.725-5,10.892,10.892,0,0,1,2.076-3.647,9.6,9.6,0,0,1,3.307-2.439,10.493,10.493,0,0,1,4.395-.89,11.594,11.594,0,0,1,3.911.648,14.859,14.859,0,0,1,3.417,1.736,14.575,14.575,0,0,1,2.966,2.736q1.373,1.648,2.56,3.142l-.417,3.1a12.773,12.773,0,0,0-1.6-1.714q-1.011-.923-2.142-2.043a18.049,18.049,0,0,0-2.23-1.9q-1.1-.78-1.89-1.307Zm-6.79,12.722a2,2,0,0,0,1.45-.758,7.167,7.167,0,0,0,1.23-1.912,12.487,12.487,0,0,0,.846-2.791,15.432,15.432,0,0,0,.319-2.911,10.778,10.778,0,0,0-.154-1.879,5.781,5.781,0,0,0-.461-1.505,2.771,2.771,0,0,0-.791-1.011,1.848,1.848,0,0,0-1.165-.374,2.476,2.476,0,0,0-1.714.769,7.208,7.208,0,0,0-1.428,1.967,11.915,11.915,0,0,0-.967,2.648,13.934,13.934,0,0,0-.352,3.274,8.2,8.2,0,0,0,.176,1.736,4.471,4.471,0,0,0,.549,1.417,2.84,2.84,0,0,0,.989.967A2.849,2.849,0,0,0,123.135-4.219ZM154.72,0a8.011,8.011,0,0,1-3.59-.76,7.457,7.457,0,0,1-2.565-2.046,8.831,8.831,0,0,1-1.539-2.975,12.131,12.131,0,0,1-.513-3.545,11.251,11.251,0,0,1,.459-2.9q.459-1.681.951-2.982a13.852,13.852,0,0,1,1.235-2.483,9.888,9.888,0,0,1,1.738-2.082,8.028,8.028,0,0,1,2.229-1.431,6.869,6.869,0,0,1,2.743-.531,6.478,6.478,0,0,1,2.288.395,5.6,5.6,0,0,1,1.837,1.108,5.016,5.016,0,0,1,1.221,1.723,5.6,5.6,0,0,1,.44,2.26,6.416,6.416,0,0,1-.892,2.986,11.969,11.969,0,0,1-2.081,2.836,13.108,13.108,0,0,1-2.829,2.106,15.335,15.335,0,0,1-3.556,1.44,6.865,6.865,0,0,0,.651.967,2.936,2.936,0,0,0,.651.6,2.2,2.2,0,0,0,.695.3,3.4,3.4,0,0,0,.783.086,8.354,8.354,0,0,0,2.78-.516A18.335,18.335,0,0,0,160.7-6.727a24.148,24.148,0,0,0,2.615-1.687,22.345,22.345,0,0,0,2.087-1.729l2.834,2.879a29.271,29.271,0,0,1-4.109,3.643q-.945.679-2.032,1.335a18.186,18.186,0,0,1-2.285,1.165,15.5,15.5,0,0,1-2.483.815A11.226,11.226,0,0,1,154.72,0Zm-2.933-10.465a4.467,4.467,0,0,0,1.731-.4,7.826,7.826,0,0,0,1.742-1.021,8.319,8.319,0,0,0,1.577-1.676,3.23,3.23,0,0,0,.772-1.74,3.119,3.119,0,0,0-.364-1.59,1.046,1.046,0,0,0-.893-.623,3.526,3.526,0,0,0-1.621.344,3.507,3.507,0,0,0-1.125.892,4.588,4.588,0,0,0-.728,1.246q-.276.7-.64,1.729a6.68,6.68,0,0,0-.408,1.7Q151.787-10.938,151.787-10.465Zm21.27,6.477q0-.287.044-.817t.132-1.214q.088-.684.2-1.445t.22-1.511q.242-1.765.593-3.8h-.33a6.257,6.257,0,0,0-.6.995q-.341.663-.956,1.946T170.782-6.5q-.956,2.045-2.472,5.01a2.593,2.593,0,0,1-1.022,1.184A2.7,2.7,0,0,1,166,0a2.537,2.537,0,0,1-1.45-.373,2.446,2.446,0,0,1-.846-1,4.68,4.68,0,0,1-.4-1.429,13.466,13.466,0,0,1-.1-1.653q0-.907.11-2.145t.286-2.61q.176-1.371.516-3.13t.593-3.067q.253-1.308.516-2.4t.483-1.774a9.05,9.05,0,0,1,.417-1.131,2.081,2.081,0,0,1,.45-.654,1.281,1.281,0,0,1,.6-.311,4.3,4.3,0,0,1,.9-.078,11.881,11.881,0,0,1,1.307.055,1.239,1.239,0,0,1,.7.266.93.93,0,0,1,.275.61,10.468,10.468,0,0,1,.044,1.087q0,.377-.033.865t-.1,1.042q-.044.554-.132,1.131-.154,1.109-.176,1.153-.308,1.508-.637,3.371l.242.266q.044-.067.582-1.175t1.165-2.2q.626-1.087,1.351-2.273t1.384-2.1a7.767,7.767,0,0,1,1.351-1.508,2.565,2.565,0,0,1,1.7-.6,2.408,2.408,0,0,1,1.582.543,1.885,1.885,0,0,1,.659,1.541,11.715,11.715,0,0,1-.11,1.641,13.619,13.619,0,0,1-.264,1.508q-.154.576-.352,1.419-.154.732-.549,2.107a5.264,5.264,0,0,0-.132.643,1.376,1.376,0,0,0-.022.177l.242.266q.044-.067.615-1.164t1.241-2.184q.67-1.087,1.428-2.284t1.417-2.107a10.746,10.746,0,0,1,1.274-1.5,2.171,2.171,0,0,1,1.56-.61,2.8,2.8,0,0,1,1.747.543,1.823,1.823,0,0,1,.714,1.541,26.159,26.159,0,0,1-.154,2.905q-.154,1.375-.461,3.038T187.1-10.7a25.857,25.857,0,0,0-.154,2.894,5.23,5.23,0,0,0,.308,1.952q.308.754.747.754a2.63,2.63,0,0,0,.967-.2A7.412,7.412,0,0,0,190-5.807a8.4,8.4,0,0,0,1.033-.721q.505-.41.967-.854a25.1,25.1,0,0,0,2.131-2.306l.374,5.209q-.967.746-1.923,1.546a16.7,16.7,0,0,1-2.021,1.45,11.058,11.058,0,0,1-2.34,1.066A9.256,9.256,0,0,1,185.339,0a1.867,1.867,0,0,1-1.329-.506,3.578,3.578,0,0,1-.868-1.41,9.441,9.441,0,0,1-.472-2.131,23.171,23.171,0,0,1-.143-2.67q0-1.4.1-2.96t.275-3.16h-.33L178.11-1.55a3.048,3.048,0,0,1-1.274,1.234A3.926,3.926,0,0,1,175.21,0a1.619,1.619,0,0,1-1.121-.373,2.478,2.478,0,0,1-.648-.96,4.994,4.994,0,0,1-.308-1.29A12.57,12.57,0,0,1,173.057-3.988Zm42.737-22.642q0,.044-.022.308a1.184,1.184,0,0,1-.239.571,1.839,1.839,0,0,1-.706.549,3.308,3.308,0,0,1-1.423.242,10.708,10.708,0,0,1-1.967-.14,2.682,2.682,0,0,1-1.043-.386,1,1,0,0,1-.413-.558,2.656,2.656,0,0,1-.076-.633,9.573,9.573,0,0,1,1.643-5.633,12.186,12.186,0,0,1,4.612-3.847,25.127,25.127,0,0,1,7.121-2.2,54.928,54.928,0,0,1,9.17-.706q3.331,0,7.009.323l7.6.666a2.8,2.8,0,0,1,1.549.879,1.982,1.982,0,0,1,.428,1.208,3.47,3.47,0,0,1-.121.879,3.177,3.177,0,0,1-.363.857,1.959,1.959,0,0,1-.648.648,1.688,1.688,0,0,1-.909.253q-.051,0-.15-.007l-.21-.016-3.145-.244-3.52-.272q-1.832-.142-3.793-.2t-3.978-.055q-.6,0-1.429.054t-1.607.125q-.886.072-1.84.179a2.605,2.605,0,0,1-.044.448q-.044.251-.119.8t-.246,1.453q-.17.9-.3,2.184t-.394,3.216q-.264,1.937-.482,4.858h12.148a1.426,1.426,0,0,1,.813.2,1.164,1.164,0,0,1,.417.5,1.88,1.88,0,0,1,.154.641q.022.341.022.652a2.118,2.118,0,0,1-.461,1.489,1.312,1.312,0,0,1-.945.5q-.154,0-1.011.031l-2.087.072-2.7.093q-1.472.052-2.845.1l-2.474.077q-1.1.033-1.571.033l-.956,5.11a30.784,30.784,0,0,1-1.22,4.611,22.49,22.49,0,0,1-1.791,3.9A12.151,12.151,0,0,1,218.769.175a10.464,10.464,0,0,1-3.3,1.945,12.287,12.287,0,0,1-4.286.692q-.5,0-1.2-.066a14.35,14.35,0,0,1-1.472-.22,12.7,12.7,0,0,1-1.527-.406,6.214,6.214,0,0,1-1.351-.626,3.592,3.592,0,0,1-.967-.868,1.827,1.827,0,0,1-.374-1.132,3.567,3.567,0,0,1,.143-.868,4.168,4.168,0,0,1,.439-1.044,3.309,3.309,0,0,1,.747-.879,1.648,1.648,0,0,1,1.088-.374,5.293,5.293,0,0,1,1.527.242q.8.242,1.659.538t1.748.538a6.86,6.86,0,0,0,1.8.242,2.187,2.187,0,0,0,1.422-.582,6.329,6.329,0,0,0,1.3-1.6,17.368,17.368,0,0,0,1.166-2.394q.555-1.373,1.044-2.965t.884-3.328l.792-3.471-2.734,0a6.5,6.5,0,0,1-.934-.083,5,5,0,0,1-1.067-.281,2.651,2.651,0,0,1-.867-.53,1.091,1.091,0,0,1-.356-.832,1.2,1.2,0,0,1,.2-.662,1.159,1.159,0,0,1,.663-.455l2.167-.434q.929-.186,1.647-.32l1.271-.238q.553-.1,1.017-.165.531-2.591.841-4.342t.531-3.154q.221-1.4.42-2.644t.46-2.667a16.572,16.572,0,0,0-3.351,1.318,11.15,11.15,0,0,0-2.352,1.648,6.111,6.111,0,0,0-1.376,1.823A4.323,4.323,0,0,0,215.793-26.631Zm32.783,9.69a11.764,11.764,0,0,1,.956,2.692,14.628,14.628,0,0,1,.319,3.2,12.32,12.32,0,0,1-.286,2.615,13.447,13.447,0,0,1-.824,2.549,12.373,12.373,0,0,1-1.318,2.307,9.388,9.388,0,0,1-1.78,1.868,8.426,8.426,0,0,1-2.186,1.252A6.91,6.91,0,0,1,240.93,0a6.184,6.184,0,0,1-3.307-.846,7.048,7.048,0,0,1-2.252-2.208,9.793,9.793,0,0,1-1.285-3.076,14.993,14.993,0,0,1-.406-3.472,15.353,15.353,0,0,1,.725-5,10.892,10.892,0,0,1,2.076-3.647,9.6,9.6,0,0,1,3.307-2.439,10.493,10.493,0,0,1,4.395-.89,11.594,11.594,0,0,1,3.911.648,14.859,14.859,0,0,1,3.417,1.736,14.575,14.575,0,0,1,2.966,2.736q1.373,1.648,2.56,3.142l-.417,3.1a12.773,12.773,0,0,0-1.6-1.714q-1.011-.923-2.142-2.043a18.049,18.049,0,0,0-2.23-1.9q-1.1-.78-1.89-1.307Zm-6.79,12.722a2,2,0,0,0,1.45-.758,7.167,7.167,0,0,0,1.23-1.912,12.487,12.487,0,0,0,.846-2.791,15.432,15.432,0,0,0,.319-2.911,10.778,10.778,0,0,0-.154-1.879,5.781,5.781,0,0,0-.461-1.505,2.771,2.771,0,0,0-.791-1.011,1.848,1.848,0,0,0-1.165-.374,2.476,2.476,0,0,0-1.714.769,7.208,7.208,0,0,0-1.428,1.967,11.915,11.915,0,0,0-.967,2.648A13.934,13.934,0,0,0,238.6-8.7a8.2,8.2,0,0,0,.176,1.736,4.471,4.471,0,0,0,.549,1.417,2.84,2.84,0,0,0,.989.967A2.849,2.849,0,0,0,241.787-4.219ZM260.87,0A8.081,8.081,0,0,1,257.3-.747a7.639,7.639,0,0,1-2.577-2,8.633,8.633,0,0,1-1.57-2.9,11.111,11.111,0,0,1-.531-3.428,12.99,12.99,0,0,1,.442-3.054,25.509,25.509,0,0,1,.961-3.109,14.928,14.928,0,0,1,1.281-2.538,10.16,10.16,0,0,1,1.767-2.12,8.165,8.165,0,0,1,2.242-1.45,6.735,6.735,0,0,1,2.717-.538,7.636,7.636,0,0,1,2.466.385,5.913,5.913,0,0,1,1.94,1.066A4.92,4.92,0,0,1,267.7-18.82a4.521,4.521,0,0,1,.456,2.01,5.174,5.174,0,0,1-.214,1.472,7.078,7.078,0,0,1-.832,1.7,4.055,4.055,0,0,1-1.2,1.329,2.5,2.5,0,0,1-1.32.352q-1.111,0-1.435-.549a1.864,1.864,0,0,1-.336-1.516q.066-.352.394-1.626a3.714,3.714,0,0,0,.022-.791,3,3,0,0,0-.109-.879.46.46,0,0,0-.481-.352,2.672,2.672,0,0,0-1.532.428,3.868,3.868,0,0,0-1.083,1.121,9.28,9.28,0,0,0-.886,1.956,19.07,19.07,0,0,0-.623,2.12,10.515,10.515,0,0,0-.23,1.637q-.044.78-.044,1.307a10.074,10.074,0,0,0,.142,1.648,4.455,4.455,0,0,0,.569,1.571,3.81,3.81,0,0,0,1.1,1.187,3,3,0,0,0,1.75.472,5.206,5.206,0,0,0,2.329-.648A16.446,16.446,0,0,0,266.7-6.5a23.556,23.556,0,0,0,2.45-2.175,28.457,28.457,0,0,0,2-2.241l1.516,2.549a28.734,28.734,0,0,1-3.56,4.2,21.662,21.662,0,0,1-1.769,1.538,15.53,15.53,0,0,1-2,1.329,11.918,11.918,0,0,1-2.175.945A7.47,7.47,0,0,1,260.87,0Zm23.215-16.941a11.764,11.764,0,0,1,.956,2.692,14.628,14.628,0,0,1,.319,3.2,12.32,12.32,0,0,1-.286,2.615,13.447,13.447,0,0,1-.824,2.549,12.373,12.373,0,0,1-1.318,2.307,9.388,9.388,0,0,1-1.78,1.868,8.426,8.426,0,0,1-2.186,1.252A6.91,6.91,0,0,1,276.438,0a6.184,6.184,0,0,1-3.307-.846,7.048,7.048,0,0,1-2.252-2.208,9.793,9.793,0,0,1-1.285-3.076,14.993,14.993,0,0,1-.406-3.472,15.353,15.353,0,0,1,.725-5,10.892,10.892,0,0,1,2.076-3.647,9.6,9.6,0,0,1,3.307-2.439,10.493,10.493,0,0,1,4.395-.89,11.594,11.594,0,0,1,3.911.648,14.859,14.859,0,0,1,3.417,1.736,14.575,14.575,0,0,1,2.966,2.736q1.373,1.648,2.56,3.142l-.417,3.1a12.773,12.773,0,0,0-1.6-1.714q-1.011-.923-2.142-2.043a18.049,18.049,0,0,0-2.23-1.9q-1.1-.78-1.89-1.307Zm-6.79,12.722a2,2,0,0,0,1.45-.758,7.167,7.167,0,0,0,1.23-1.912,12.487,12.487,0,0,0,.846-2.791,15.432,15.432,0,0,0,.319-2.911,10.778,10.778,0,0,0-.154-1.879,5.781,5.781,0,0,0-.461-1.505,2.771,2.771,0,0,0-.791-1.011,1.848,1.848,0,0,0-1.165-.374,2.476,2.476,0,0,0-1.714.769,7.208,7.208,0,0,0-1.428,1.967,11.915,11.915,0,0,0-.967,2.648,13.934,13.934,0,0,0-.352,3.274,8.2,8.2,0,0,0,.176,1.736,4.471,4.471,0,0,0,.549,1.417,2.84,2.84,0,0,0,.989.967A2.849,2.849,0,0,0,277.295-4.219Z" transform="translate(-12.656 43.857)" fill="#335eea"/>
</svg>
